<svg id="Capa_1" data-name="Capa 1" xmlns="http://www.w3.org/2000/svg" viewBox="0 0 1459.43 387.54"><defs><style>.cls-1,.cls-3,.cls-7{fill:#fff;}.cls-1,.cls-2{stroke:#fff;stroke-miterlimit:10;stroke-width:10px;}.cls-2{fill:none;}.cls-3{isolation:isolate;font-size:220px;letter-spacing:-0.09em;}.cls-3,.cls-8{font-family:VictorMono-ExtraLightItalic, Victor Mono;font-weight:200;font-style:italic;}.cls-4{letter-spacing:-0.27em;}.cls-5{letter-spacing:-0.07em;}.cls-6,.cls-9{font-family:VictorMono-Regular, Victor Mono;font-weight:400;font-style:normal;}.cls-6{letter-spacing:-0.05em;}.cls-8{font-size:188.1px;fill:#f2f2f2;letter-spacing:-0.04em;}</style></defs><title>isologotipo-httpfido-horizontal-sin-fondo</title><path class="cls-1" d="M339.72,308.75" transform="translate(-21.15 -19.46)"/><path class="cls-1" d="M334.33,41.73" transform="translate(-21.15 -19.46)"/><path class="cls-2" d="M102.33,52.12H37.46A11.31,11.31,0,0,0,26.15,63.43V348.61a11.31,11.31,0,0,0,11.31,11.31h64.87" transform="translate(-21.15 -19.46)"/><path class="cls-2" d="M256.23,359.92h66.41A11.31,11.31,0,0,0,334,348.61V63.43a11.31,11.31,0,0,0-11.31-11.31H256.23" transform="translate(-21.15 -19.46)"/><text class="cls-3" transform="translate(419.85 190) scale(1.16 1)">htt<tspan class="cls-4" x="300.59" y="0">p</tspan><tspan class="cls-5" x="361.63" y="0"> </tspan><tspan class="cls-6" x="465.78" y="0">Fido</tspan></text><path class="cls-7" d="M445,327.31h20.36v3.74H449.5V342.7h13.44v3.72H449.5v15.49H445Z" transform="translate(-21.15 -19.46)"/><path class="cls-7" d="M487.6,347.67V327.31h4.5v20.48c0,8.33,3.59,10.95,8.19,10.95s8.38-2.62,8.38-10.95V327.31H513v20.36c0,11.12-5.47,15-12.68,15S487.6,358.79,487.6,347.67Z" transform="translate(-21.15 -19.46)"/><path class="cls-7" d="M538.61,327.31h4.5v30.95h15.4v3.65h-19.9Z" transform="translate(-21.15 -19.46)"/><path class="cls-7" d="M581,327.31h4.5v30.95h15.4v3.65H581Z" transform="translate(-21.15 -19.46)"/><path class="cls-7" d="M647.64,357.47l2.69-3a13.86,13.86,0,0,0,9.78,4.3c4.64,0,7.33-2.26,7.33-5.64s-2.57-4.66-5.89-6.1l-5.06-2.19c-3.3-1.39-7.16-3.84-7.16-8.93s4.69-9.2,11.12-9.2a14.65,14.65,0,0,1,10.39,4.3l-2.45,2.83a11.4,11.4,0,0,0-8-3.26c-4,0-6.58,2-6.58,5.07s3.06,4.58,5.84,5.73l5,2.14c4.09,1.73,7.34,4.11,7.34,9.27s-4.62,9.87-12,9.87A17,17,0,0,1,647.64,357.47Z" transform="translate(-21.15 -19.46)"/><path class="cls-7" d="M701.37,331.05H690.68v-3.74h25.86v3.74H705.86v30.86h-4.49Z" transform="translate(-21.15 -19.46)"/><path class="cls-7" d="M744.14,327.31h5.06l11.95,34.6h-4.77l-6.16-19.21c-1.27-3.89-2.44-7.69-3.52-11.7h-.22c-1.1,4-2.22,7.81-3.49,11.7l-6.23,19.21h-4.57Zm-5.67,20.6h16.25v3.51H738.47Z" transform="translate(-21.15 -19.46)"/><path class="cls-7" d="M779.72,344.67c0-11.17,6.7-18,15.67-18a13.29,13.29,0,0,1,9.78,4.28l-2.45,2.85a9.59,9.59,0,0,0-7.16-3.26c-6.67,0-11.09,5.38-11.09,14s4.22,14.17,10.92,14.17a10.59,10.59,0,0,0,8.16-3.89l2.45,2.76a13.62,13.62,0,0,1-10.83,5C786.3,362.63,779.72,355.93,779.72,344.67Z" transform="translate(-21.15 -19.46)"/><path class="cls-7" d="M828.66,327.31h4.49v17.38h.15L848,327.31h5.09l-11,13.2,12.74,21.4h-4.89l-10.51-18L833.28,351v11h-4.5Z" transform="translate(-21.15 -19.46)"/><path class="cls-7" d="M899.32,327.31H904l3.69,18.87,2.08,11.19h.19c.79-3.72,1.64-7.47,2.45-11.19l4.89-18.87h4.08l4.89,18.87c.85,3.68,1.71,7.45,2.56,11.19h.2c.68-3.74,1.32-7.49,2-11.19l3.72-18.87H939L931.7,362h-5.4L921,341.14c-.61-2.71-1.17-5.24-1.71-7.9H919c-.54,2.66-1.15,5.19-1.76,7.9l-5.16,20.77H906.8Z" transform="translate(-21.15 -19.46)"/><path class="cls-7" d="M961.37,327.31h20.46v3.74H966v10.86h13.37v3.74H966v12.61h16.38v3.65H961.5Z" transform="translate(-21.15 -19.46)"/><path class="cls-7" d="M1005.88,327.31h10.49c7.18,0,12.22,2.4,12.22,8.5a7.59,7.59,0,0,1-5.16,7.51v.22a8,8,0,0,1,7.16,8.31c0,6.8-5.47,10.13-13.34,10.13H1006Zm9.78,14.77c6,0,8.48-2.19,8.48-5.7,0-4.05-2.81-5.57-8.29-5.57h-5.42v11.27Zm.9,16.4c6,0,9.61-2.14,9.61-6.8,0-4.27-3.42-6.22-9.61-6.22h-6.13v13Z" transform="translate(-21.15 -19.46)"/><path class="cls-7" d="M1080.62,327.31h8.75c10.85,0,16.67,6.19,16.67,17.22S1100.22,362,1089.57,362h-9Zm8.51,31.07c8.23,0,12.37-5.09,12.37-13.85s-4.14-13.6-12.37-13.6h-4v27.45Z" transform="translate(-21.15 -19.46)"/><path class="cls-7" d="M1129.87,327.31h20.36v3.74h-15.86v10.86h13.37v3.74h-13.37v12.61h16.4v3.65h-20.9Z" transform="translate(-21.15 -19.46)"/><path class="cls-7" d="M1169.59,327.31h4.77l5.69,18.75c1.22,4.08,2.08,7.37,3.4,11.46h.19c1.32-4.09,2.18-7.38,3.4-11.46l5.67-18.75h4.57l-11.22,34.6h-5.2Z" transform="translate(-21.15 -19.46)"/><path class="cls-7" d="M1218.06,327.31h20.4v3.74H1222.6v10.86H1236v3.74h-13.37v12.61h16.4v3.65h-20.9Z" transform="translate(-21.15 -19.46)"/><path class="cls-7" d="M1262.59,327.31h4.5v30.95h15.37v3.65h-19.9Z" transform="translate(-21.15 -19.46)"/><path class="cls-7" d="M1301.45,344.53c0-11.12,6.23-17.85,15.1-17.85s15.09,6.75,15.09,17.85-6.24,18.1-15.09,18.1S1301.45,355.62,1301.45,344.53Zm25.54,0c0-8.65-4.15-14-10.44-14s-10.46,5.33-10.46,14,4.16,14.21,10.46,14.21,10.44-5.57,10.44-14.21Z" transform="translate(-21.15 -19.46)"/><path class="cls-7" d="M1355.39,327.31h10.17c7.89,0,13.25,2.61,13.25,10.2s-5.33,10.71-13,10.71H1360v13.69h-4.49Zm9.78,17.34c6.18,0,9.12-2.19,9.12-7.21s-3.13-6.63-9.32-6.63h-5v13.76Z" transform="translate(-21.15 -19.46)"/><path class="cls-7" d="M1402,327.31h20.33v3.74H1406.5v10.86h13.37v3.74H1406.5v12.61h16.4v3.65H1402Z" transform="translate(-21.15 -19.46)"/><path class="cls-7" d="M1446.53,327.31h11c7.33,0,12.37,2.54,12.37,9.77s-5.16,10.25-12.37,10.25h-6.48v14.58h-4.49ZM1457,343.76c5.5,0,8.53-2.19,8.53-6.68s-3-6.2-8.53-6.2h-5.85v12.88Zm-.25,2.4,3.52-2.28L1471,362h-5.08Z" transform="translate(-21.15 -19.46)"/><text class="cls-8" transform="translate(47.27 241.36) scale(1.17 1)">h<tspan class="cls-9" x="95.26" y="0">F</tspan></text><text x="-21.15" y="-19.46"/></svg>