<svg id="Capa_1" data-name="Capa 1" xmlns="http://www.w3.org/2000/svg" viewBox="0 0 1895.85 321.88"><defs><style>.cls-1,.cls-4{fill:#fff;}.cls-1,.cls-2{stroke:#fff;stroke-miterlimit:10;stroke-width:10px;}.cls-2{fill:none;}.cls-3{isolation:isolate;}.cls-5{fill:#f2f2f2;}</style></defs><title>isologotipo-httpfido-horizontal-sin-fondo-sin-fullstack</title><path class="cls-1" d="M339.72,308.75" transform="translate(-21.15 -47.12)"/><path class="cls-1" d="M334.33,41.73" transform="translate(-21.15 -47.12)"/><path class="cls-2" d="M102.33,52.12H37.46A11.31,11.31,0,0,0,26.15,63.43V348.61a11.31,11.31,0,0,0,11.31,11.31h64.87" transform="translate(-21.15 -47.12)"/><path class="cls-2" d="M256.23,359.92h66.41A11.31,11.31,0,0,0,334,348.61V63.43a11.31,11.31,0,0,0-11.31-11.31H256.23" transform="translate(-21.15 -47.12)"/><g class="cls-3"><path class="cls-4" d="M554.12,311.13c-6.56,4.47-17.61,7.75-28.66,7.75-14.15,0-23.47-6.56-23.47-16.4,0-16.71,11.39-61.15,28.65-109.18,14.16-40.57,2.42-55.48-25.89-55.48-39.36,0-82.16,57-90.1,90.38l-21.41,86.51H378.4L437.09,76.07h14.5L424.66,185.25c19.67-34,48.33-59.07,79.74-59.07,41.09,0,59.73,19.39,41.09,68-16.92,45-28,86.2-28,102.31,0,6.56,5.53,10.74,13.47,10.74a28.42,28.42,0,0,0,15.88-5.07Z" transform="translate(-21.15 -47.12)"/><path class="cls-4" d="M605.56,254.45,633.17,142h-42.8l3.1-11.63h42.81L649.4,76.07h14.5l-13.12,54.29h71.81L719.83,142H648l-28,113.65c-9,36.1-3.45,51.61,28.31,51.61,24.86,0,37.29-4.77,46.26-17.6l13.47,5.07c-13.81,19.09-27.62,24.16-59.38,24.16C603.83,318.88,594.16,299.79,605.56,254.45Z" transform="translate(-21.15 -47.12)"/><path class="cls-4" d="M778.51,254.45,806.13,142H763.32l3.11-11.63h42.81l13.12-54.29h14.5l-13.12,54.29h71.8L892.78,142H821L793,255.64c-9,36.1-3.45,51.61,28.31,51.61,24.86,0,37.28-4.77,46.26-17.6L881,294.72c-13.8,19.09-27.61,24.16-59.37,24.16C776.79,318.88,767.12,299.79,778.51,254.45Z" transform="translate(-21.15 -47.12)"/><path class="cls-4" d="M1072.65,223.73c-14.16,57.27-48.34,95.15-91.49,95.15-27.27,0-51.78-5.37-51.44-19.39L912.46,369H898l34.52-139.9a79,79,0,0,1,1.73-7.76,42.62,42.62,0,0,1,1.73-6.26l14.5-60.56c.69-2.38,1-5.07.69-6,.34-6.57-5.18-10.74-13.47-10.74a28.4,28.4,0,0,0-15.88,5.07l-7.25-8.95c6.56-4.48,17.61-7.76,28.66-7.76,13.46,0,26.23,7.46,22.09,29.54,8.29-18.5,36.94-29.54,60.07-29.54C1082,126.18,1090.6,149.75,1072.65,223.73Zm-47-85.91c-33.15,0-59.73,13.12-75.26,77l-5.87,24.76c-14.85,64.43-2.42,67.71,36.25,67.71,36.59,0,64.9-34,77.33-85.91C1073.68,157.8,1069.19,137.82,1025.7,137.82Z" transform="translate(-21.15 -47.12)"/><path class="cls-4" d="M1361.25,94.86H1232.14V192.7H1315v19.09h-82.85V314.71h-23.82V76.07h152.93Z" transform="translate(-21.15 -47.12)"/><path class="cls-4" d="M1487.13,295.92h60.41v18.79H1402.89V295.92h60.42V149.15h-43.5V130.36h67.32ZM1445.7,77.26c0-14,5.18-18.19,22.09-18.19s22.44,4.17,22.44,18.19c0,13.72-5.52,17.9-22.44,17.9S1445.7,91,1445.7,77.26Z" transform="translate(-21.15 -47.12)"/><path class="cls-4" d="M1573.64,222.83c0-71.89,19-96.65,77.33-96.65,24.86,0,43.84,5.67,54.2,21.18V76.07H1729V314.71h-23.82V303.07c-10.7,11.64-29.69,15.81-54.2,15.81C1592.63,318.88,1573.64,294.42,1573.64,222.83Zm131.53,53.4V193.3c0-34.9-20.37-48.32-54.2-48.32-40.74,0-53.51,18.79-53.51,77.85,0,58.77,12.77,77.26,53.51,77.26C1682,300.09,1705.17,293.53,1705.17,276.23Z" transform="translate(-21.15 -47.12)"/><path class="cls-4" d="M1762,222.53c0-71.59,19-96.35,77.33-96.35S1917,150.94,1917,222.53s-19.33,96.35-77.68,96.35S1762,294.13,1762,222.53Zm131.19,0c0-59.06-13.12-77.55-53.86-77.55s-53.51,18.49-53.51,77.55,12.78,77.56,53.51,77.56S1893.18,281.6,1893.18,222.53Z" transform="translate(-21.15 -47.12)"/></g><path class="cls-5" d="M171.66,285.32c-4.51,3-12.1,5.25-19.69,5.25-9.73,0-16.14-4.44-16.14-11.12,0-11.32,7.83-41.44,19.7-74,9.73-27.5,1.66-37.61-17.8-37.61-27.06,0-56.48,38.62-61.94,61.26L61.07,287.74H50.87L91.21,126h10L82.67,200c13.53-23.05,33.22-40,54.82-40,28.24,0,41.06,13.14,28.24,46.09-11.63,30.53-19.22,58.43-19.22,69.35,0,4.45,3.8,7.28,9.25,7.28a19.69,19.69,0,0,0,10.92-3.44Z" transform="translate(-21.15 -47.12)"/><path class="cls-5" d="M306,138.74H217.24v66.31h57V218h-57v69.75H200.87V126H306Z" transform="translate(-21.15 -47.12)"/></svg>