<svg id="Capa_1" data-name="Capa 1" xmlns="http://www.w3.org/2000/svg" viewBox="0 0 323 323"><defs><style>.cls-1{fill:#1c1d24;}.cls-2,.cls-5{fill:#fff;}.cls-2,.cls-3,.cls-4{stroke:#fff;stroke-miterlimit:10;stroke-width:10px;}.cls-3{fill:#ed1c24;}.cls-4{fill:none;}</style></defs><title>isotipo-httpfido-fondoazul</title><rect class="cls-1" width="323" height="323" rx="14.76"/><path class="cls-2" d="M321.72,263.75" transform="translate(-0.5 -0.5)"/><path class="cls-3" d="M316.33-3.27" transform="translate(-0.5 -0.5)"/><path class="cls-4" d="M84.33,7.12H19.46A11.31,11.31,0,0,0,8.15,18.43V303.61a11.31,11.31,0,0,0,11.31,11.31H84.33" transform="translate(-0.5 -0.5)"/><path class="cls-4" d="M238.23,314.92h66.41A11.31,11.31,0,0,0,316,303.61V18.43A11.31,11.31,0,0,0,304.64,7.12H238.23" transform="translate(-0.5 -0.5)"/><path class="cls-5" d="M156.58,239.31c-4.64,3.14-12.47,5.44-20.3,5.44-10,0-16.63-4.6-16.63-11.5,0-11.71,8.07-42.86,20.3-76.53,10-28.43,1.71-38.89-18.35-38.89-27.89,0-58.22,39.94-63.85,63.36L42.59,241.82H32.07L73.66,74.55H83.93L64.85,151.08c13.94-23.84,34.25-41.4,56.51-41.4,29.11,0,42.32,13.59,29.11,47.67-12,31.57-19.82,60.43-19.82,71.72,0,4.6,3.92,7.53,9.54,7.53A20.3,20.3,0,0,0,151.45,233Z" transform="translate(-0.5 -0.5)"/><path class="cls-5" d="M295.07,87.72H203.58v68.59h58.71v13.38H203.58v72.13H186.7V74.55H295.07Z" transform="translate(-0.5 -0.5)"/></svg>