<svg id="Capa_1" data-name="Capa 1" xmlns="http://www.w3.org/2000/svg" viewBox="0 0 317.8 317.8"><defs><style>.cls-1,.cls-4{fill:#fff;}.cls-1,.cls-2,.cls-3{stroke:#fff;stroke-miterlimit:10;stroke-width:10px;}.cls-2{fill:#ed1c24;}.cls-3{fill:none;}</style></defs><title>isotipo-httpfido-sin-fondo</title><path class="cls-1" d="M321.72,263.75" transform="translate(-3.15 -2.12)"/><path class="cls-2" d="M316.33-3.27" transform="translate(-3.15 -2.12)"/><path class="cls-3" d="M84.33,7.12H19.46A11.31,11.31,0,0,0,8.15,18.43V303.61a11.31,11.31,0,0,0,11.31,11.31H84.33" transform="translate(-3.15 -2.12)"/><path class="cls-3" d="M238.23,314.92h66.41A11.31,11.31,0,0,0,316,303.61V18.43A11.31,11.31,0,0,0,304.64,7.12H238.23" transform="translate(-3.15 -2.12)"/><path class="cls-4" d="M153.26,240.11c-5,3.39-13.51,5.88-22,5.88-10.86,0-18-5-18-12.45,0-12.67,8.74-46.4,22-82.85,10.86-30.78,1.85-42.1-19.86-42.1-30.2,0-63,43.24-69.13,68.59L29.84,242.82H18.45l45-181.09H74.6L53.94,144.58C69,118.78,91,99.76,115.12,99.76c31.52,0,45.82,14.72,31.52,51.61-13,34.18-21.45,65.42-21.45,77.65,0,5,4.23,8.15,10.32,8.15a22,22,0,0,0,12.19-3.85Z" transform="translate(-3.15 -2.12)"/><path class="cls-4" d="M303.18,76H204.13v74.25H267.7v14.49H204.13v78.09H185.86V61.73H303.18Z" transform="translate(-3.15 -2.12)"/></svg>