<svg id="Capa_1" data-name="Capa 1" xmlns="http://www.w3.org/2000/svg" viewBox="0 0 1031.57 207.48"><defs><style>.cls-1{isolation:isolate;}.cls-2{fill:#fff;}</style></defs><title>logotipo-httpfido-sin-fondo</title><g class="cls-1"><path class="cls-2" d="M140.21,179.77c-4.4,3-11.8,5.19-19.21,5.19-9.49,0-15.74-4.39-15.74-11,0-11.18,7.64-40.94,19.21-73.09,9.49-27.16,1.62-37.14-17.36-37.14-26.39,0-55.09,38.14-60.41,60.51L32.35,182.17h-10L61.75,22.41h9.72L53.41,95.5C66.61,72.74,85.82,56,106.88,56c27.54,0,40,13,27.54,45.53-11.34,30.16-18.74,57.71-18.74,68.5,0,4.39,3.7,7.18,9,7.18a19,19,0,0,0,10.65-3.39Z" transform="translate(-22.4 -11.03)"/><path class="cls-2" d="M174.7,141.83l18.51-75.28h-28.7l2.09-7.79h28.7l8.79-36.35h9.72L205,58.76h48.14l-1.85,7.79H203.17l-18.75,76.08c-6,24.16-2.32,34.54,19,34.54,16.66,0,25-3.19,31-11.78l9,3.4C234.18,181.57,224.92,185,203.63,185,173.54,185,167.06,172.18,174.7,141.83Z" transform="translate(-22.4 -11.03)"/><path class="cls-2" d="M290.66,141.83l18.52-75.28h-28.7l2.08-7.79h28.7l8.8-36.35h9.72L321,58.76h48.15l-1.86,7.79H319.13l-18.75,76.08c-6,24.16-2.31,34.54,19,34.54,16.67,0,25-3.19,31-11.78l9,3.4C350.15,181.57,340.89,185,319.59,185,289.5,185,283,172.18,290.66,141.83Z" transform="translate(-22.4 -11.03)"/><path class="cls-2" d="M487.86,121.26c-9.48,38.34-32.4,63.7-61.33,63.7-18.29,0-34.72-3.59-34.49-13l-11.57,46.53h-9.72l23.14-93.65a52.27,52.27,0,0,1,1.16-5.2,27.6,27.6,0,0,1,1.16-4.19l9.72-40.54a9.16,9.16,0,0,0,.46-4c.23-4.39-3.47-7.19-9-7.19a19.08,19.08,0,0,0-10.64,3.39l-4.86-6c4.39-3,11.8-5.19,19.21-5.19,9,0,17.59,5,14.81,19.77C421.44,63.35,440.65,56,456.15,56,494.11,56,499.9,71.74,487.86,121.26ZM456.39,63.75c-22.22,0-40.05,8.79-50.46,51.52L402,131.84C392,175,400.37,177.17,426.3,177.17c24.53,0,43.51-22.76,51.84-57.51C488.56,77.13,485.55,63.75,456.39,63.75Z" transform="translate(-22.4 -11.03)"/><path class="cls-2" d="M681.36,35H594.8v65.5h55.55v12.78H594.8v68.9h-16V22.41H681.36Z" transform="translate(-22.4 -11.03)"/><path class="cls-2" d="M765.76,169.59h40.5v12.58h-97V169.59h40.51V71.34H720.62V58.76h45.14ZM738,23.21C738,13.83,741.45,11,752.79,11s15.05,2.8,15.05,12.18c0,9.19-3.7,12-15.05,12S738,32.4,738,23.21Z" transform="translate(-22.4 -11.03)"/><path class="cls-2" d="M823.76,120.66c0-48.12,12.73-64.7,51.85-64.7C892.27,56,905,59.76,912,70.14V22.41h16V182.17H912v-7.79C904.77,182.17,892,185,875.61,185,836.49,185,823.76,168.59,823.76,120.66ZM912,156.41V100.89c0-23.36-13.66-32.35-36.34-32.35-27.32,0-35.88,12.58-35.88,52.12,0,39.34,8.56,51.72,35.88,51.72C896.44,172.38,912,168,912,156.41Z" transform="translate(-22.4 -11.03)"/><path class="cls-2" d="M950,120.46c0-47.92,12.74-64.5,51.85-64.5S1054,72.54,1054,120.46s-13,64.5-52.08,64.5S950,168.39,950,120.46Zm88,0c0-39.54-8.79-51.92-36.11-51.92S966,80.92,966,120.46s8.56,51.92,35.87,51.92S1038,160,1038,120.46Z" transform="translate(-22.4 -11.03)"/></g></svg>