<svg id="Capa_1" data-name="Capa 1" xmlns="http://www.w3.org/2000/svg" viewBox="0 0 1025 350.29"><defs><style>.cls-1,.cls-2{fill:#fff;}.cls-2{stroke:#fff;stroke-miterlimit:10;stroke-width:2px;}</style></defs><title>logo</title><path class="cls-1" d="M.17,217.6l39.46-192L18.72,21.94V17.05Q42.56,12.6,67,6.87l1.11,1.68Q65.57,19,62.16,35.39T54.84,71.16L48,103.1Q75.33,86,96.67,86q14.79,0,22.67,7.81t7.88,21.2a61.58,61.58,0,0,1-1.4,12.83L111.46,194q-.28,1.53-.42,2.79a18.87,18.87,0,0,0-.14,2.23q0,5.58,4.6,7.32t15.62,1.75l-.42,5.44q-17.85,5.85-28.17,5.85-8.09,0-12.41-4T85.8,203.1a48,48,0,0,1,1.25-9.77L100.16,133a47.73,47.73,0,0,0,1.4-11q0-8.79-4.47-13.67t-14.92-4.88q-16.87,0-36.4,11.44L24.85,216.2Z" transform="translate(0 -6.87)"/><path class="cls-1" d="M197,103.52q-5.72,23.3-9.83,41.77T180,178a68.53,68.53,0,0,0-1.68,12.69q0,7,4.68,10.6t14.15,3.63q8.79,0,22.45-3.21l.84,6.28a98.58,98.58,0,0,1-21.55,8.36,84.72,84.72,0,0,1-21.54,3.07q-12.13,0-18.48-5.65t-6.35-16.52a68.94,68.94,0,0,1,1.26-11.44q2.5-13.25,7-33.61t11.16-49.09l-18.55-4.18.28-6,22.87-2L191.39,56.1q7.13-1.66,15.62-4.18l1.12,1Q203.66,71.59,199.34,91h39.47L236,103.52Z" transform="translate(0 -6.87)"/><path class="cls-1" d="M284.72,103.52q-5.73,23.3-9.83,41.77T267.7,178A69.22,69.22,0,0,0,266,190.68q0,7,4.67,10.6c3.12,2.42,7.83,3.63,14.16,3.63q8.77,0,22.45-3.21l.84,6.28a99,99,0,0,1-21.55,8.36,84.79,84.79,0,0,1-21.55,3.07q-12.14,0-18.48-5.65t-6.34-16.52a69.84,69.84,0,0,1,1.25-11.44q2.52-13.25,7-33.61t11.15-49.09l-18.54-4.18.27-6,22.88-2L279.14,56.1q7.11-1.66,15.62-4.18l1.11,1Q291.41,71.59,287.09,91h39.47l-2.79,12.55Z" transform="translate(0 -6.87)"/><path class="cls-1" d="M297.85,279l15.34-4.74q3.9-1.26,4.47-4.32,1.11-5.16,2.71-12.83t3.7-18L350,112.31a72.06,72.06,0,0,0,1.12-7.53,5.45,5.45,0,0,0-3.35-5.16q-3.34-1.68-16.32-1.68l.42-5.3q18.54-6.4,29.71-6.41,7,0,10.94,3.41t4,9.56c0,.46,0,1-.07,1.53s-.12,1.12-.21,1.67h.14q29.42-16.17,38.35-16.17,16,0,27.13,13.11t11.08,34.72q0,36.41-22.8,61.37t-57.95,25a108.16,108.16,0,0,1-19.8-1.95l-6.27,30.82q-1.55,7-2.45,11.78t-1.32,7.74q-.55,4.19,2.79,5L364,279l-1,5.72q-21.48-.42-33.33-.42-13.81,0-32.36.42ZM355,206.72a83.17,83.17,0,0,0,18.27,2.09q24.27,0,38.84-21.19a81.42,81.42,0,0,0,14.57-47.14q0-15.21-5.64-25.59T405.24,104.5q-13.11,0-31.24,8.92Z" transform="translate(0 -6.87)"/><path class="cls-2" d="M527,67.69v61.05h68v12.51H527v72.49H510.9V55.07h89.51V67.69Z" transform="translate(0 -6.87)"/><path class="cls-2" d="M645.37,55.07V213.74H629.24V55.07Z" transform="translate(0 -6.87)"/><path class="cls-2" d="M686.18,213.74V55.07h48.28q47.16,0,71.42,19.58t24.27,57.65q0,24.27-12.1,42.88t-34.42,28.58q-22.32,10-51.69,10Zm16.14-146V201.23h28.61q39.47,0,60.83-17.8t21.37-50.7q0-65-80.18-65Z" transform="translate(0 -6.87)"/><path class="cls-2" d="M936.13,216.54q-25.21,0-44.94-10.19a73.88,73.88,0,0,1-30.57-28.64q-10.85-18.44-10.84-41.53,0-25.12,10.84-44.17a72.71,72.71,0,0,1,31.26-29.34q20.43-10.29,47.53-10.3,24.83,0,44.19,10.09a72.26,72.26,0,0,1,29.87,28.26Q1024,108.9,1024,132.19q0,24.92-10.72,44.23a72.76,72.76,0,0,1-30.57,29.71Q962.85,216.56,936.13,216.54Zm1.39-151.65q-20.81,0-37,8.79a61.73,61.73,0,0,0-25.09,24.86q-8.88,16.08-8.89,36.13,0,20.28,8.51,36.14a59.9,59.9,0,0,0,24.15,24.54Q914.82,204,936,204q33.27,0,52.19-18.71t18.91-51.08q0-21-8.2-36.78A56.28,56.28,0,0,0,975,73.3Q959.33,64.88,937.52,64.89Z" transform="translate(0 -6.87)"/><path class="cls-1" d="M0,321.29H20.32v3.8H4.48V337H17.91v3.79H4.48v15.76H0Z" transform="translate(0 -6.87)"/><path class="cls-1" d="M42.52,342V321.29H47V342.1c0,8.46,3.58,11.12,8.18,11.12s8.35-2.66,8.35-11.12V321.29h4.3V342c0,11.31-5.46,15.19-12.65,15.19S42.52,353.28,42.52,342Z" transform="translate(0 -6.87)"/><path class="cls-1" d="M93.43,321.29h4.49v31.44h15.37v3.79H93.43Z" transform="translate(0 -6.87)"/><path class="cls-1" d="M135.67,321.29h4.48v31.44h15.38v3.79H135.67Z" transform="translate(0 -6.87)"/><path class="cls-1" d="M202.24,351.94l2.68-3.08a13.75,13.75,0,0,0,9.72,4.36c4.62,0,7.36-2.3,7.36-5.72,0-3.6-2.55-4.75-5.88-6.2l-5.06-2.23c-3.28-1.4-7.13-3.89-7.13-9.07,0-5.38,4.69-9.35,11.09-9.35A14.54,14.54,0,0,1,225.39,325L223,327.89a11.3,11.3,0,0,0-8-3.3c-4,0-6.57,2-6.57,5.14,0,3.4,3.07,4.67,5.83,5.83l5,2.18c4.08,1.75,7.26,4.18,7.26,9.41,0,5.57-4.6,10-12,10A16.86,16.86,0,0,1,202.24,351.94Z" transform="translate(0 -6.87)"/><path class="cls-1" d="M255.86,325.09H245.21v-3.8H271v3.8H260.35v31.43h-4.49Z" transform="translate(0 -6.87)"/><path class="cls-1" d="M298.55,321.29h5.05l11.92,35.23h-4.75l-6.14-19.67c-1.27-3.94-2.4-7.81-3.53-11.87h-.21c-1.09,4.08-2.22,7.93-3.49,11.87l-6.21,19.67h-4.56Zm-5.66,20.92h16.22v3.58H292.89Z" transform="translate(0 -6.87)"/><path class="cls-1" d="M334.07,338.94c0-11.36,6.69-18.29,15.63-18.29a13.11,13.11,0,0,1,9.69,4.35l-2.46,2.91a9.59,9.59,0,0,0-7.15-3.32c-6.66,0-11.08,5.45-11.08,14.23s4.22,14.4,10.9,14.4a10.57,10.57,0,0,0,8.17-4l2.45,2.81a13.57,13.57,0,0,1-10.8,5.08C340.64,357.16,334.07,350.38,334.07,338.94Z" transform="translate(0 -6.87)"/><path class="cls-1" d="M382.91,321.29h4.48V339h.15l14.64-17.67h5.07l-11,13.43L409,356.52h-5l-10.51-18.3-6,7.16v11.14h-4.48Z" transform="translate(0 -6.87)"/><path class="cls-1" d="M453.42,321.29h4.63l3.7,19.18c.68,3.79,1.38,7.57,2.06,11.36H464c.78-3.79,1.63-7.59,2.47-11.36l4.89-19.18h4.07l4.88,19.18c.85,3.73,1.7,7.55,2.55,11.36h.21c.68-3.81,1.32-7.61,2-11.36l3.69-19.18h4.33l-7.29,35.23h-5.39l-5.33-21.17c-.61-2.76-1.17-5.31-1.7-8h-.21c-.55,2.72-1.16,5.27-1.77,8l-5.22,21.17H460.9Z" transform="translate(0 -6.87)"/><path class="cls-1" d="M515.36,321.29h20.3v3.8H519.84v11h13.35v3.8H519.84v12.81H536.2v3.79H515.36Z" transform="translate(0 -6.87)"/><path class="cls-1" d="M559.79,321.29h10.46c7.16,0,12.12,2.44,12.12,8.63a7.71,7.71,0,0,1-5.15,7.65v.22c4.21.83,7.17,3.61,7.17,8.43,0,6.92-5.48,10.3-13.34,10.3H559.79Zm9.7,15c6,0,8.48-2.21,8.48-5.78,0-4.11-2.82-5.65-8.27-5.65h-5.42v11.43Zm.92,16.68c6,0,9.57-2.17,9.57-6.91,0-4.34-3.41-6.33-9.57-6.33h-6.13V353Z" transform="translate(0 -6.87)"/><path class="cls-1" d="M634.39,321.29h8.81c10.83,0,16.64,6.3,16.64,17.49S654,356.52,643.4,356.52h-9Zm8.48,31.56c8.23,0,12.34-5.16,12.34-14.07S651.1,325,642.87,325h-4v27.88Z" transform="translate(0 -6.87)"/><path class="cls-1" d="M683.55,321.29h20.3v3.8H688v11h13.35v3.8H688v12.81h16.36v3.79H683.55Z" transform="translate(0 -6.87)"/><path class="cls-1" d="M723.18,321.29h4.74l5.69,19c1.24,4.14,2.08,7.5,3.39,11.63h.21c1.31-4.13,2.18-7.49,3.4-11.63l5.64-19h4.56l-11.19,35.23h-5.19Z" transform="translate(0 -6.87)"/><path class="cls-1" d="M771.56,321.29h20.31v3.8H776.05v11h13.34v3.8H776.05v12.81H792.4v3.79H771.56Z" transform="translate(0 -6.87)"/><path class="cls-1" d="M816,321.29h4.48v31.44h15.37v3.79H816Z" transform="translate(0 -6.87)"/><path class="cls-1" d="M854.79,338.78c0-11.28,6.21-18.13,15.06-18.13s15,6.87,15,18.13-6.21,18.38-15,18.38S854.79,350.06,854.79,338.78Zm25.48,0c0-8.78-4.13-14.19-10.42-14.19s-10.43,5.41-10.43,14.19,4.14,14.44,10.43,14.44S880.27,347.56,880.27,338.78Z" transform="translate(0 -6.87)"/><path class="cls-1" d="M908.63,321.29h10.06c7.89,0,13.22,2.66,13.22,10.38,0,7.41-5.3,10.88-13,10.88h-5.79v14h-4.48Zm9.71,17.62c6.16,0,9.1-2.23,9.1-7.24s-3.13-6.74-9.32-6.74h-5v14Z" transform="translate(0 -6.87)"/><path class="cls-1" d="M955.15,321.29h20.31v3.8H959.64v11H973v3.8H959.64v12.81H976v3.79H955.15Z" transform="translate(0 -6.87)"/><path class="cls-1" d="M999.59,321.29h11c7.18,0,12.33,2.58,12.33,9.92,0,7-5.15,10.42-12.33,10.42h-6.55v14.89h-4.48ZM1010,338c5.48,0,8.5-2.22,8.5-6.78s-3-6.28-8.5-6.28h-5.91V338Zm-.24,2.41,3.51-2.32L1024,356.52h-5.08Z" transform="translate(0 -6.87)"/><circle class="cls-1" cx="936.37" cy="130" r="8.93"/></svg>