<svg id="Capa_1" data-name="Capa 1" xmlns="http://www.w3.org/2000/svg" viewBox="0 0 1024.83 277.81"><defs><style>.cls-1,.cls-2{fill:#fff;}.cls-2{stroke:#fff;stroke-miterlimit:10;stroke-width:2px;}</style></defs><title>logo-header</title><path class="cls-1" d="M.17,217.6l39.46-192L18.72,21.94V17.05Q42.56,12.6,67,6.87l1.11,1.68Q65.57,19,62.16,35.39T54.84,71.16L48,103.1Q75.33,86,96.67,86q14.79,0,22.67,7.81t7.88,21.2a61.58,61.58,0,0,1-1.4,12.83L111.46,194q-.28,1.53-.42,2.79a18.87,18.87,0,0,0-.14,2.23q0,5.58,4.6,7.32t15.62,1.75l-.42,5.44q-17.85,5.85-28.17,5.85-8.09,0-12.41-4T85.8,203.1a48,48,0,0,1,1.25-9.77L100.16,133a47.73,47.73,0,0,0,1.4-11q0-8.79-4.47-13.67t-14.92-4.88q-16.87,0-36.4,11.44L24.85,216.2Z" transform="translate(-0.17 -6.87)"/><path class="cls-1" d="M197,103.52q-5.72,23.3-9.83,41.77T180,178a68.53,68.53,0,0,0-1.68,12.69q0,7,4.68,10.6t14.15,3.63q8.79,0,22.45-3.21l.84,6.28a98.58,98.58,0,0,1-21.55,8.36,84.72,84.72,0,0,1-21.54,3.07q-12.13,0-18.48-5.65t-6.35-16.52a68.94,68.94,0,0,1,1.26-11.44q2.5-13.25,7-33.61t11.16-49.09l-18.55-4.18.28-6,22.87-2L191.39,56.1q7.13-1.66,15.62-4.18l1.12,1Q203.66,71.59,199.34,91h39.47L236,103.52Z" transform="translate(-0.17 -6.87)"/><path class="cls-1" d="M284.72,103.52q-5.73,23.3-9.83,41.77T267.7,178A69.22,69.22,0,0,0,266,190.68q0,7,4.67,10.6c3.12,2.42,7.83,3.63,14.16,3.63q8.77,0,22.45-3.21l.84,6.28a99,99,0,0,1-21.55,8.36,84.79,84.79,0,0,1-21.55,3.07q-12.14,0-18.48-5.65t-6.34-16.52a69.84,69.84,0,0,1,1.25-11.44q2.52-13.25,7-33.61t11.15-49.09l-18.54-4.18.27-6,22.88-2L279.14,56.1q7.11-1.66,15.62-4.18l1.11,1Q291.41,71.59,287.09,91h39.47l-2.79,12.55Z" transform="translate(-0.17 -6.87)"/><path class="cls-1" d="M297.85,279l15.34-4.74q3.9-1.26,4.47-4.32,1.11-5.16,2.71-12.83t3.7-18L350,112.31a72.06,72.06,0,0,0,1.12-7.53,5.45,5.45,0,0,0-3.35-5.16q-3.34-1.68-16.32-1.68l.42-5.3q18.54-6.4,29.71-6.41,7,0,10.94,3.41t4,9.56c0,.46,0,1-.07,1.53s-.12,1.12-.21,1.67h.14q29.42-16.17,38.35-16.17,16,0,27.13,13.11t11.08,34.72q0,36.41-22.8,61.37t-57.95,25a108.16,108.16,0,0,1-19.8-1.95l-6.27,30.82q-1.55,7-2.45,11.78t-1.32,7.74q-.55,4.19,2.79,5L364,279l-1,5.72q-21.48-.42-33.33-.42-13.81,0-32.36.42ZM355,206.72a83.17,83.17,0,0,0,18.27,2.09q24.27,0,38.84-21.19a81.42,81.42,0,0,0,14.57-47.14q0-15.21-5.64-25.59T405.24,104.5q-13.11,0-31.24,8.92Z" transform="translate(-0.17 -6.87)"/><path class="cls-2" d="M527,67.69v61.05h68v12.51H527v72.49H510.9V55.07h89.51V67.69Z" transform="translate(-0.17 -6.87)"/><path class="cls-2" d="M645.37,55.07V213.74H629.24V55.07Z" transform="translate(-0.17 -6.87)"/><path class="cls-2" d="M686.18,213.74V55.07h48.28q47.16,0,71.42,19.58t24.27,57.65q0,24.27-12.1,42.88t-34.42,28.58q-22.32,10-51.69,10Zm16.14-146V201.23h28.61q39.47,0,60.83-17.8t21.37-50.7q0-65-80.18-65Z" transform="translate(-0.17 -6.87)"/><path class="cls-2" d="M936.13,216.54q-25.21,0-44.94-10.19a73.88,73.88,0,0,1-30.57-28.64q-10.85-18.44-10.84-41.53,0-25.12,10.84-44.17a72.71,72.71,0,0,1,31.26-29.34q20.43-10.29,47.53-10.3,24.83,0,44.19,10.09a72.26,72.26,0,0,1,29.87,28.26Q1024,108.9,1024,132.19q0,24.92-10.72,44.23a72.76,72.76,0,0,1-30.57,29.71Q962.85,216.56,936.13,216.54Zm1.39-151.65q-20.81,0-37,8.79a61.73,61.73,0,0,0-25.09,24.86q-8.88,16.08-8.89,36.13,0,20.28,8.51,36.14a59.9,59.9,0,0,0,24.15,24.54Q914.82,204,936,204q33.27,0,52.19-18.71t18.91-51.08q0-21-8.2-36.78A56.28,56.28,0,0,0,975,73.3Q959.33,64.88,937.52,64.89Z" transform="translate(-0.17 -6.87)"/><circle class="cls-1" cx="936.21" cy="130" r="8.93"/></svg>